<?xml version="1.0" ?><svg width="200px" height="170px" viewBox="0 0 87.46 56.5" xmlns="http://www.w3.org/2000/svg"><defs><style>.cls-1,.cls-2{fill:none;stroke:#373535;stroke-miterlimit:10;}.cls-1{stroke-linecap:round;}.cls-2{stroke-width:2px;}</style></defs><title/><g data-name="Layer 2" id="Layer_2"><g data-name="Layer 1" id="Layer_1-2"><line class="cls-1" x1="86.96" x2="86.96" y1="33.82" y2="38.91"/><path class="cls-1" d="M15.17,10.4H82.94a4,4,0,0,1,4,4V29.54"/><path class="cls-1" d="M21,56H4.51a4,4,0,0,1-4-4V14.41a4,4,0,0,1,4-4H10"/><line class="cls-1" x1="37.46" x2="29.82" y1="56" y2="56"/><path class="cls-1" d="M87,47.1V52a4,4,0,0,1-4,4H43.13"/><path class="cls-1" d="M32.75,27.69a15.06,15.06,0,0,1,1.66,3.46"/><path class="cls-1" d="M7.17,43.82A15.12,15.12,0,0,1,31.08,25.56"/><path class="cls-1" d="M11.23,48.19A15.21,15.21,0,0,1,8.8,46"/><path class="cls-1" d="M35,33.82A15.14,15.14,0,0,1,20.06,51a15.06,15.06,0,0,1-6.53-1.48"/><line class="cls-1" x1="25.61" x2="30.25" y1="34.78" y2="39.42"/><line class="cls-1" x1="18.35" x2="24.67" y1="27.52" y2="33.83"/><line class="cls-1" x1="16.35" x2="17.35" y1="25.51" y2="26.52"/><line class="cls-1" x1="25.78" x2="26.81" y1="41.84" y2="42.87"/><line class="cls-1" x1="18.31" x2="24.82" y1="34.37" y2="40.88"/><line class="cls-1" x1="12.9" x2="17.31" y1="28.96" y2="33.37"/><line class="cls-1" x1="18.55" x2="23.36" y1="41.51" y2="46.31"/><line class="cls-1" x1="15.11" x2="17.62" y1="38.06" y2="40.57"/><line class="cls-1" x1="9.45" x2="14.05" y1="32.41" y2="37.01"/><line class="cls-1" x1="21.04" x2="16.35" y1="41.62" y2="46.31"/><line class="cls-1" x1="24.27" x2="22.02" y1="38.39" y2="40.64"/><line class="cls-1" x1="30.25" x2="25.52" y1="32.41" y2="37.14"/><line class="cls-1" x1="17.44" x2="12.9" y1="38.32" y2="42.87"/><line class="cls-1" x1="24.48" x2="18.35" y1="31.29" y2="37.42"/><line class="cls-1" x1="26.81" x2="25.64" y1="28.96" y2="30.13"/><line class="cls-1" x1="10.47" x2="9.45" y1="38.41" y2="39.42"/><line class="cls-1" x1="17.68" x2="11.31" y1="31.19" y2="37.56"/><line class="cls-1" x1="23.36" x2="18.72" y1="25.51" y2="30.16"/><path class="cls-1" d="M80.09,27.69a15.06,15.06,0,0,1,1.66,3.46"/><path class="cls-1" d="M54.5,43.82A15.12,15.12,0,0,1,78.41,25.56"/><path class="cls-1" d="M58.56,48.19A15.21,15.21,0,0,1,56.13,46"/><path class="cls-1" d="M82.38,33.82A15.14,15.14,0,0,1,67.4,51a15.06,15.06,0,0,1-6.53-1.48"/><line class="cls-1" x1="72.95" x2="77.59" y1="34.78" y2="39.42"/><line class="cls-1" x1="65.69" x2="72" y1="27.52" y2="33.83"/><line class="cls-1" x1="63.68" x2="64.69" y1="25.51" y2="26.52"/><line class="cls-1" x1="73.12" x2="74.14" y1="41.84" y2="42.87"/><line class="cls-1" x1="65.65" x2="72.15" y1="34.37" y2="40.88"/><line class="cls-1" x1="60.24" x2="64.65" y1="28.96" y2="33.37"/><line class="cls-1" x1="65.89" x2="70.69" y1="41.51" y2="46.31"/><line class="cls-1" x1="62.44" x2="64.95" y1="38.06" y2="40.57"/><line class="cls-1" x1="56.79" x2="61.39" y1="32.41" y2="37.01"/><line class="cls-1" x1="68.37" x2="63.68" y1="41.62" y2="46.31"/><line class="cls-1" x1="71.6" x2="69.35" y1="38.39" y2="40.64"/><line class="cls-1" x1="77.59" x2="72.85" y1="32.41" y2="37.14"/><line class="cls-1" x1="64.78" x2="60.24" y1="38.32" y2="42.87"/><line class="cls-1" x1="71.81" x2="65.69" y1="31.29" y2="37.42"/><line class="cls-1" x1="74.14" x2="72.98" y1="28.96" y2="30.13"/><line class="cls-1" x1="57.8" x2="56.79" y1="38.41" y2="39.42"/><line class="cls-1" x1="65.02" x2="58.64" y1="31.19" y2="37.56"/><line class="cls-1" x1="70.69" x2="66.05" y1="25.51" y2="30.16"/><rect class="cls-1" height="7.93" rx="0.77" ry="0.77" width="11.88" x="37.79" y="33.82"/><path class="cls-1" d="M40.13,33.82A9.18,9.18,0,0,1,40,41.76"/><path class="cls-1" d="M47.33,33.82a9.18,9.18,0,0,0,.16,7.94"/><line class="cls-1" x1="48.88" x2="51.34" y1="47.1" y2="47.1"/><line class="cls-1" x1="45.07" x2="46.99" y1="47.1" y2="47.1"/><line class="cls-1" x1="39.56" x2="43.13" y1="47.1" y2="47.1"/><line class="cls-1" x1="36" x2="37.79" y1="47.1" y2="47.1"/><line class="cls-1" x1="0.5" x2="86.96" y1="17.75" y2="17.75"/><line class="cls-1" x1="34.32" x2="34.32" y1="15.22" y2="16"/><line class="cls-1" x1="34.32" x2="34.32" y1="11.88" y2="14.13"/><line class="cls-1" x1="37.46" x2="37.46" y1="14.35" y2="16"/><line class="cls-1" x1="37.46" x2="37.46" y1="11.88" y2="13"/><line class="cls-1" x1="40.59" x2="40.59" y1="14.63" y2="16"/><line class="cls-1" x1="40.59" x2="40.59" y1="11.88" y2="13.25"/><line class="cls-1" x1="43.73" x2="43.73" y1="13.25" y2="16"/><line class="cls-1" x1="43.73" x2="43.73" y1="11.88" y2="12.19"/><line class="cls-1" x1="46.86" x2="46.86" y1="15.06" y2="16"/><line class="cls-1" x1="46.86" x2="46.86" y1="11.88" y2="13.66"/><line class="cls-1" x1="50" x2="50" y1="15.5" y2="16"/><line class="cls-1" x1="50" x2="50" y1="11.88" y2="13.94"/><line class="cls-1" x1="53.13" x2="53.13" y1="14.13" y2="16"/><line class="cls-1" x1="53.13" x2="53.13" y1="11.88" y2="12.56"/><path class="cls-2" d="M20,10.4V3.87A2.87,2.87,0,0,1,22.91,1H67.22a2.87,2.87,0,0,1,2.87,2.87V10.4"/></g></g></svg>